<mxfile host="app.diagrams.net" agent="Mozilla/5.0 (X11; Linux x86_64) AppleWebKit/537.36 (KHTML, like Gecko) Chrome/127.0.0.0 Safari/537.36" version="24.7.6">
  <diagram name="Page-1" id="_VVNCH2tBkHM1oxdJzIi">
    <mxGraphModel dx="1396" dy="793" grid="1" gridSize="10" guides="1" tooltips="1" connect="1" arrows="1" fold="1" page="1" pageScale="1" pageWidth="850" pageHeight="1100" math="0" shadow="0">
      <root>
        <mxCell id="0" />
        <mxCell id="1" parent="0" />
        <UserObject label="&lt;pre style=&quot;box-sizing: border-box; font-family: var(--fontStack-monospace, ui-monospace, SFMono-Regular, SF Mono, Menlo, Consolas, Liberation Mono, monospace); font-size: 14px; margin-top: 0px; margin-bottom: 0px; overflow: auto; color: rgb(251, 252, 253); font-style: normal; font-variant-ligatures: normal; font-variant-caps: normal; font-weight: 400; letter-spacing: normal; orphans: 2; text-align: start; text-indent: 0px; text-transform: none; widows: 2; word-spacing: 0px; -webkit-text-stroke-width: 0px; text-decoration-thickness: initial; text-decoration-style: initial; text-decoration-color: initial;&quot; class=&quot;copyable-terminal-content f5&quot; id=&quot;empty-setup-new-repo-echo&quot;&gt;&lt;span style=&quot;box-sizing: border-box;&quot; class=&quot;user-select-contain&quot;&gt;git remote add origin &lt;span style=&quot;box-sizing: border-box;&quot; data-targets=&quot;git-clone-help.helpTexts&quot;&gt;git@github.com:Enockkipkoech/design-diagrams-drawio.git&lt;/span&gt;&lt;/span&gt;&lt;/pre&gt;" id="Sc6ALYCBfedhq2a787Kb-1">
          <mxCell style="rounded=0;whiteSpace=wrap;html=1;" parent="1" vertex="1">
            <mxGeometry x="80" y="99" width="690" height="70" as="geometry" />
          </mxCell>
        </UserObject>
        <mxCell id="Sc6ALYCBfedhq2a787Kb-2" value="Top Up" style="rounded=1;whiteSpace=wrap;html=1;" parent="1" vertex="1">
          <mxGeometry x="100" y="116.5" width="120" height="35" as="geometry" />
        </mxCell>
        <mxCell id="Sc6ALYCBfedhq2a787Kb-3" value="Send" style="rounded=1;whiteSpace=wrap;html=1;" parent="1" vertex="1">
          <mxGeometry x="270" y="116.5" width="120" height="35" as="geometry" />
        </mxCell>
        <mxCell id="Sc6ALYCBfedhq2a787Kb-4" value="Receive" style="rounded=1;whiteSpace=wrap;html=1;" parent="1" vertex="1">
          <mxGeometry x="450" y="116.5" width="120" height="35" as="geometry" />
        </mxCell>
        <mxCell id="Sc6ALYCBfedhq2a787Kb-5" value="Withdraw" style="rounded=1;whiteSpace=wrap;html=1;" parent="1" vertex="1">
          <mxGeometry x="620" y="116.5" width="120" height="35" as="geometry" />
        </mxCell>
        <mxCell id="Sc6ALYCBfedhq2a787Kb-6" value="LOCAL CURRENCY(MNO-MPESA )" style="ellipse;whiteSpace=wrap;html=1;" parent="1" vertex="1">
          <mxGeometry x="280" y="20" width="310" height="60" as="geometry" />
        </mxCell>
        <mxCell id="Sc6ALYCBfedhq2a787Kb-7" style="edgeStyle=orthogonalEdgeStyle;rounded=0;orthogonalLoop=1;jettySize=auto;html=1;exitX=0.5;exitY=1;exitDx=0;exitDy=0;" parent="1" source="Sc6ALYCBfedhq2a787Kb-6" target="Sc6ALYCBfedhq2a787Kb-6" edge="1">
          <mxGeometry relative="1" as="geometry" />
        </mxCell>
      </root>
    </mxGraphModel>
  </diagram>
</mxfile>
